#N canvas 568 197 340 306 10;
#X obj -945 131 gemwin;
#X msg -964 78 destroy;
#X obj -964 51 sel 0 1;
#X obj -964 13 tgl 30 0 empty empty empty 17 7 0 10 -262144 -1 -1 1
1;
#N canvas 892 57 504 628 defult 0;
#X obj -910 44 loadbang;
#X msg -910 64 \; pd dsp 1;
#X obj -839 151 bng 15 250 50 0 empty empty empty 17 7 0 10 -262144
-1 -1;
#X obj -664 372 v Xspeed;
#X obj -767 324 v Yspeed;
#X msg -781 351 0;
#X msg -796 402 0;
#X obj -781 375 v Xpos;
#X obj -796 425 v Ypos;
#X obj -767 257 randomF 0.1;
#X obj -767 281 - 0.05;
#X obj -839 177 t b b b b b b b b;
#X obj -664 254 random 2;
#X obj -664 274 sel 0 1;
#X msg -664 301 -1;
#X msg -633 301 1;
#X obj -664 329 expr ($f1*$f2)/100;
#X floatatom -664 350 5 0 0 0 - - -;
#X floatatom -767 301 5 0 0 0 - - -;
#X obj -949 308 v Lscore;
#X obj -921 327 v Rscore;
#X msg -918 285 0;
#X msg -948 280 0;
#X obj -966 351 s tostart;
#X obj -839 102 r replay;
#X obj -924 197 loadbang;
#X obj -967 163 gemkeyboard;
#X floatatom -967 186 5 0 0 0 - - -;
#X obj -967 227 sel 49;
#X obj -967 253 t b b b b b;
#X obj -559 305 + 4;
#X obj -559 281 randomF 4;
#X obj -913 102 r resetgme;
#X obj -884 367 s Rpoint;
#X obj -924 388 s Lpoint;
#X obj -771 -81 gemmouse 1 1;
#X obj -771 1 expr ($f1*8)-4;
#X obj -702 -19 s mouseRight;
#X obj -744 98 v x;
#X obj -706 97 v y;
#X obj -754 26 expr ($f1*-8)+4;
#X obj -771 146 s mousePos;
#X obj -771 120 pack f f;
#X obj -771 74 t f f;
#X obj -733 75 t f f;
#X obj -737 -39 s mouseLeft;
#X obj -720 -60 s mouseMiddle;
#X floatatom -771 52 5 0 0 0 - - -;
#X floatatom -733 52 5 0 0 0 - - -;
#X connect 0 0 1 0;
#X connect 2 0 11 0;
#X connect 5 0 7 0;
#X connect 6 0 8 0;
#X connect 9 0 10 0;
#X connect 10 0 18 0;
#X connect 11 3 6 0;
#X connect 11 4 5 0;
#X connect 11 5 9 0;
#X connect 11 6 12 0;
#X connect 11 7 31 0;
#X connect 12 0 13 0;
#X connect 13 0 14 0;
#X connect 13 1 15 0;
#X connect 14 0 16 0;
#X connect 15 0 16 0;
#X connect 16 0 17 0;
#X connect 17 0 3 0;
#X connect 18 0 4 0;
#X connect 21 0 20 0;
#X connect 21 0 33 0;
#X connect 22 0 19 0;
#X connect 22 0 34 0;
#X connect 24 0 2 0;
#X connect 25 0 29 0;
#X connect 26 0 27 0;
#X connect 27 0 28 0;
#X connect 28 0 29 0;
#X connect 29 0 23 0;
#X connect 29 1 22 0;
#X connect 29 2 21 0;
#X connect 29 3 2 0;
#X connect 30 0 16 1;
#X connect 31 0 30 0;
#X connect 32 0 29 0;
#X connect 35 0 36 0;
#X connect 35 1 40 0;
#X connect 35 2 45 0;
#X connect 35 3 46 0;
#X connect 35 4 37 0;
#X connect 36 0 47 0;
#X connect 40 0 48 0;
#X connect 42 0 41 0;
#X connect 43 0 42 0;
#X connect 43 1 38 0;
#X connect 44 0 42 1;
#X connect 44 1 39 0;
#X connect 47 0 43 0;
#X connect 48 0 44 0;
#X restore -892 152 pd defult;
#N canvas 800 116 408 565 sliderL 0;
#X obj 64 -8363 gemhead;
#X obj 64 -8256 rectangle 0.1 1;
#X obj 64 -8283 translateXYZ -3.5 0 0;
#X floatatom 151 -8520 5 0 0 0 - - -;
#X obj 150 -8399 f;
#X floatatom 239 -8324 5 0 0 0 - - -;
#X obj 239 -8302 v LY;
#X obj 102 -8307 v LY;
#X obj 151 -8544 gemkeyboard;
#X obj 150 -8480 sel 13 1;
#X obj 181 -8399 + 0;
#X obj 258 -8458 r tostart;
#X msg 258 -8433 0;
#X obj 60 -8330 t a b b;
#X msg 150 -8455 0.15;
#X msg 196 -8456 -0.15;
#X obj 239 -8348 moses 3.8;
#X obj 183 -8372 moses -3.8;
#X obj 82 -8445 r LLY;
#X connect 0 0 13 0;
#X connect 2 0 1 0;
#X connect 3 0 9 0;
#X connect 4 0 10 0;
#X connect 5 0 6 0;
#X connect 7 0 2 2;
#X connect 8 0 3 0;
#X connect 9 0 14 0;
#X connect 9 1 15 0;
#X connect 10 0 17 0;
#X connect 11 0 12 0;
#X connect 12 0 10 1;
#X connect 12 0 4 1;
#X connect 13 0 2 0;
#X connect 13 1 7 0;
#X connect 13 2 4 0;
#X connect 14 0 10 1;
#X connect 15 0 10 1;
#X connect 16 0 4 1;
#X connect 16 0 5 0;
#X connect 17 1 16 0;
#X connect 18 0 4 0;
#X restore -816 151 pd sliderL;
#N canvas 717 330 405 375 sliderR 0;
#X obj 45 90 gemhead;
#X obj 45 217 rectangle 0.1 1;
#X obj 45 190 translateXYZ 3.5 0 0;
#X floatatom 203 37 5 0 0 0 - - -;
#X obj 203 144 f;
#X floatatom 293 219 5 0 0 0 - - -;
#X obj 293 241 v RY;
#X obj 123 164 v RY;
#X obj 203 13 gemkeyboard;
#X obj 203 63 sel 126 125;
#X text 281 34 key up and down;
#X obj 234 144 + 0;
#X obj 287 81 r tostart;
#X msg 287 106 0;
#X obj 45 118 t a b b;
#X obj 236 171 moses -3.8;
#X obj 293 194 moses 3.8;
#X msg 203 88 0.15;
#X msg 238 86 -0.15;
#X obj 162 104 r RRY;
#X connect 0 0 14 0;
#X connect 2 0 1 0;
#X connect 3 0 9 0;
#X connect 4 0 11 0;
#X connect 5 0 6 0;
#X connect 7 0 2 2;
#X connect 8 0 3 0;
#X connect 9 0 17 0;
#X connect 9 1 18 0;
#X connect 11 0 15 0;
#X connect 12 0 13 0;
#X connect 13 0 4 1;
#X connect 13 0 11 1;
#X connect 14 0 2 0;
#X connect 14 1 7 0;
#X connect 14 2 4 0;
#X connect 15 1 16 0;
#X connect 16 0 4 1;
#X connect 16 0 5 0;
#X connect 17 0 11 1;
#X connect 18 0 11 1;
#X connect 19 0 4 0;
#X restore -816 175 pd sliderR;
#X msg -945 100 reset \, FSAA 8 \, color 0.2 0.2 0.2 \, create \, 1
;
#N canvas 231 86 996 575 score 0;
#X obj 98 0 gemhead;
#X obj 98 51 repeat 5;
#X obj 98 74 t a b;
#X obj 170 78 f;
#X obj 197 79 + 1;
#X obj 227 79 % 5;
#X obj 95 121 separator;
#X obj 16 173 loadbang;
#X msg 16 194 draw line;
#X obj 83 247 square 0.1;
#X obj 158 122 * 0.2;
#X obj 95 153 translateXYZ 0 3.5 0;
#X obj 98 27 translateXYZ -3.5 0 0;
#X obj 95 215 color;
#X obj 253 172 v Lscore;
#X obj 167 232 sel 0 1;
#X msg 212 255 1 0 0;
#X obj 226 146 t f b;
#X msg 165 254 1 1 1;
#X obj 167 208 < 5;
#X obj 384 7 gemhead;
#X obj 384 58 repeat 5;
#X obj 384 81 t a b;
#X obj 456 85 f;
#X obj 483 86 + 1;
#X obj 513 86 % 5;
#X obj 381 128 separator;
#X obj 302 180 loadbang;
#X msg 302 201 draw line;
#X obj 382 293 square 0.1;
#X obj 444 129 * 0.2;
#X obj 381 160 translateXYZ 0 3.5 0;
#X obj 381 222 color;
#X obj 453 239 sel 0 1;
#X msg 498 262 1 0 0;
#X obj 512 153 t f b;
#X msg 451 261 1 1 1;
#X obj 453 215 < 5;
#X obj 384 34 translateXYZ 2.7 0 0;
#X obj 513 189 v Rscore;
#X obj 281 233 == 5;
#X obj 526 216 == 5;
#X obj 264 319 gemhead;
#X obj 262 410 text2d;
#X obj 280 343 loadbang;
#X obj 266 297 tgl 15 0 empty empty empty 17 7 0 10 -262144 -1 -1 1
1;
#X obj 296 289 s toEnd;
#X obj 535 324 gemhead;
#X obj 533 415 text2d;
#X obj 551 348 loadbang;
#X obj 537 302 tgl 15 0 empty empty empty 17 7 0 10 -262144 -1 -1 0
1;
#X obj 563 282 s toEnd;
#X floatatom 235 218 5 0 0 0 - - -;
#X obj 296 265 sel 1;
#X obj 562 254 sel 1;
#X msg 551 375 text PLAY1 WIN;
#X msg 280 370 text PLAY2 WIN;
#X msg 395 350 0;
#X obj 395 327 r tostart;
#X obj 442 352 loadbang;
#X obj 76 426 text2d;
#X obj 142 408 loadbang;
#X obj 185 307 expr 5-$f1;
#X floatatom 185 328 5 0 0 0 - - -;
#X obj -27 265 gemhead 50;
#X obj -28 391 color 1 0 0;
#X obj -23 319 t a a;
#X obj -28 369 separator;
#X obj 48 335 separator;
#X obj 61 361 translateXYZ 0 0 0;
#X obj 74 392 color 1 1 1;
#X obj -28 293 translateXYZ -3.5 3.5 0;
#X obj 747 366 text2d;
#X obj 813 348 loadbang;
#X obj 644 205 gemhead 50;
#X obj 643 331 color 1 0 0;
#X obj 648 259 t a a;
#X obj 643 309 separator;
#X obj 719 275 separator;
#X obj 732 301 translateXYZ 0 0 0;
#X obj 745 332 color 1 1 1;
#X obj 643 233 translateXYZ 3.5 3.5 0;
#X obj 806 208 expr 5-$f1;
#X floatatom 806 229 5 0 0 0 - - -;
#X msg 144 427 13;
#X msg 118 333 text P1=\$1;
#X msg 815 367 13;
#X msg 789 273 text P2=\$1;
#X obj 643 362 circle 0.4;
#X obj -28 422 circle 0.4;
#X connect 0 0 12 0;
#X connect 1 0 2 0;
#X connect 2 0 6 0;
#X connect 2 1 3 0;
#X connect 3 0 4 0;
#X connect 3 0 10 0;
#X connect 3 0 17 0;
#X connect 4 0 5 0;
#X connect 5 0 3 1;
#X connect 6 0 11 0;
#X connect 7 0 8 0;
#X connect 8 0 9 0;
#X connect 10 0 11 1;
#X connect 12 0 1 0;
#X connect 13 0 9 0;
#X connect 14 0 19 1;
#X connect 14 0 40 0;
#X connect 14 0 52 0;
#X connect 15 0 18 0;
#X connect 15 1 16 0;
#X connect 16 0 13 1;
#X connect 17 0 19 0;
#X connect 17 1 14 0;
#X connect 18 0 13 1;
#X connect 19 0 15 0;
#X connect 20 0 38 0;
#X connect 21 0 22 0;
#X connect 22 0 26 0;
#X connect 22 1 23 0;
#X connect 23 0 24 0;
#X connect 23 0 30 0;
#X connect 23 0 35 0;
#X connect 24 0 25 0;
#X connect 25 0 23 1;
#X connect 26 0 31 0;
#X connect 27 0 28 0;
#X connect 28 0 29 0;
#X connect 30 0 31 1;
#X connect 32 0 29 0;
#X connect 33 0 36 0;
#X connect 33 1 34 0;
#X connect 34 0 32 1;
#X connect 35 0 37 0;
#X connect 35 1 39 0;
#X connect 36 0 32 1;
#X connect 37 0 33 0;
#X connect 38 0 21 0;
#X connect 39 0 37 1;
#X connect 39 0 41 0;
#X connect 39 0 82 0;
#X connect 40 0 45 0;
#X connect 40 0 53 0;
#X connect 41 0 50 0;
#X connect 41 0 54 0;
#X connect 42 0 43 0;
#X connect 44 0 56 0;
#X connect 45 0 42 0;
#X connect 47 0 48 0;
#X connect 49 0 55 0;
#X connect 50 0 47 0;
#X connect 52 0 62 0;
#X connect 53 0 46 0;
#X connect 54 0 51 0;
#X connect 55 0 48 0;
#X connect 56 0 43 0;
#X connect 57 0 42 0;
#X connect 57 0 47 0;
#X connect 58 0 57 0;
#X connect 59 0 57 0;
#X connect 61 0 84 0;
#X connect 62 0 63 0;
#X connect 63 0 85 0;
#X connect 64 0 71 0;
#X connect 65 0 89 0;
#X connect 66 0 68 0;
#X connect 66 1 67 0;
#X connect 67 0 65 0;
#X connect 68 0 69 0;
#X connect 69 0 70 0;
#X connect 70 0 60 0;
#X connect 71 0 66 0;
#X connect 73 0 86 0;
#X connect 74 0 81 0;
#X connect 75 0 88 0;
#X connect 76 0 78 0;
#X connect 76 1 77 0;
#X connect 77 0 75 0;
#X connect 78 0 79 0;
#X connect 79 0 80 0;
#X connect 80 0 72 0;
#X connect 81 0 76 0;
#X connect 82 0 83 0;
#X connect 83 0 87 0;
#X connect 84 0 60 1;
#X connect 85 0 60 0;
#X connect 86 0 72 1;
#X connect 87 0 72 0;
#X restore -893 178 pd score;
#N canvas 229 450 684 296 sound 0;
#X obj 94 211 dac~;
#X obj 94 35 osc~ 300;
#X obj 137 100 line~;
#X obj 91 126 *~;
#X obj 249 208 dac~;
#X obj 292 97 line~;
#X obj 246 123 *~;
#X obj 248 32 phasor~ 700;
#X msg 144 72 0.5 \, 0 100;
#X msg 299 69 0.5 \, 0 300;
#X obj 157 31 r slider;
#X obj 340 31 r edge;
#X obj 442 196 dac~;
#X obj 573 91 line~;
#X obj 439 111 *~;
#X obj 550 -62 r miss;
#X obj 441 63 osc~;
#X obj 448 34 *~;
#X obj 509 36 *~ 2000;
#X obj 450 12 phasor~ 2;
#X obj 521 -8 t b b;
#X msg 520 13 0;
#X obj 537 -33 bng 15 250 50 0 empty empty empty 17 7 0 10 -262144
-1 -1;
#X msg 580 63 0.5 \, 0 500;
#X connect 1 0 3 0;
#X connect 2 0 3 1;
#X connect 3 0 0 0;
#X connect 3 0 0 1;
#X connect 5 0 6 1;
#X connect 6 0 4 0;
#X connect 6 0 4 1;
#X connect 7 0 6 0;
#X connect 8 0 2 0;
#X connect 9 0 5 0;
#X connect 10 0 8 0;
#X connect 11 0 9 0;
#X connect 13 0 14 1;
#X connect 13 0 18 0;
#X connect 14 0 12 0;
#X connect 14 0 12 1;
#X connect 15 0 22 0;
#X connect 16 0 14 0;
#X connect 17 0 16 0;
#X connect 18 0 17 1;
#X connect 19 0 17 0;
#X connect 20 0 21 0;
#X connect 20 1 23 0;
#X connect 21 0 19 1;
#X connect 22 0 20 0;
#X connect 23 0 13 0;
#X restore -893 199 pd sound;
#N canvas 517 307 415 397 arduino-control 0;
#X floatatom -377 140 5 0 0 0 - - -;
#X floatatom -378 231 5 0 0 0 - - -;
#X floatatom -153 184 5 0 0 0 - - -;
#X text -379 194 左邊滑桿位置負3.8到正3.8;
#X text -383 279 右邊滑桿位置負3.8到正3.8;
#X obj -283 106 bng 15 250 50 0 empty empty empty 17 7 0 10 -262144
-1 -1;
#X obj -153 157 r Lpoint;
#X obj -76 156 r Rpoint;
#X floatatom -76 186 5 0 0 0 - - -;
#X obj -191 30 bng 15 250 50 0 empty empty empty 17 7 0 10 -262144
-1 -1;
#X obj -191 327 bng 15 250 50 0 empty empty empty 17 7 0 10 -262144
-1 -1;
#X text -155 82 輸出至Arduino;
#X text -381 72 輸入至Arduino;
#X text -286 155 重新遊戲按鈕;
#X obj -283 133 s resetgme;
#X text -155 135 左邊得分0到4;
#X text -75 135 右邊得分0到4;
#X obj -377 166 s LLY;
#X obj -378 256 s RRY;
#X connect 0 0 17 0;
#X connect 1 0 18 0;
#X connect 5 0 14 0;
#X connect 6 0 2 0;
#X connect 7 0 8 0;
#X connect 9 0 10 0;
#X restore -894 240 pd arduino-control;
#N canvas 169 48 1270 634 ball&move 0;
#X obj 77 -28 gemhead;
#X obj 73 120 translateXYZ;
#X obj 73 162 circle 0.2;
#X obj 952 175 v Xspeed;
#X obj 952 244 v Xspeed;
#X floatatom 952 220 5 0 0 0 - - -;
#X obj 868 170 v Xpos;
#X obj 775 165 v Ypos;
#X obj 895 215 v Xspeed;
#X obj 868 191 t f b;
#X obj 868 239 +;
#X obj 868 268 v Xpos;
#X obj 775 189 t f b;
#X obj 775 237 +;
#X obj 802 213 v Yspeed;
#X obj 92 44 t b b;
#X obj 96 94 v Xpos;
#X obj 119 69 v Ypos;
#X obj 775 300 v Ypos;
#X obj 77 -2 t a b b b b b;
#X obj 770 393 v Yspeed;
#X obj 770 444 v Yspeed;
#X obj 494 95 t b b b;
#X obj 560 100 v Xpos;
#X obj 513 122 v Ypos;
#X obj 480 252 spigot;
#X obj 513 205 expr if($f1+$f2==2 \, 1 \, 0);
#X obj 513 230 tgl 15 0 empty empty empty 17 7 0 10 -262144 -1 -1 0
1;
#X obj 547 284 v Xspeed;
#X obj 547 336 v Xspeed;
#X obj 547 313 * -1;
#X obj 439 342 v Yspeed;
#X obj 439 370 +;
#X obj 439 394 v Yspeed;
#X obj 479 302 t b b b;
#X obj 658 185 tgl 15 0 empty empty empty 17 7 0 10 -262144 -1 -1 0
1;
#X obj 513 187 tgl 15 0 empty empty empty 17 7 0 10 -262144 -1 -1 0
1;
#X floatatom 513 141 5 0 0 0 - - -;
#X obj 214 59 t b b b;
#X obj 280 61 v Xpos;
#X obj 233 86 v Ypos;
#X obj 200 216 spigot;
#X obj 233 169 expr if($f1+$f2==2 \, 1 \, 0);
#X obj 233 194 tgl 15 0 empty empty empty 17 7 0 10 -262144 -1 -1 0
1;
#X obj 255 249 v Xspeed;
#X obj 255 301 v Xspeed;
#X obj 255 273 * -1;
#X obj 162 327 v Yspeed;
#X obj 162 360 +;
#X obj 162 385 v Yspeed;
#X obj 200 268 t b b b;
#X obj 384 154 tgl 15 0 empty empty empty 17 7 0 10 -262144 -1 -1 0
1;
#X obj 233 151 tgl 15 0 empty empty empty 17 7 0 10 -262144 -1 -1 0
1;
#X floatatom 233 105 5 0 0 0 - - -;
#X obj 233 129 expr if($f1>LY-0.7 && $f1<LY+0.7 \, 1 \, 0);
#X text 490 72 右邊滑桿的碰撞偵測;
#X text 212 34 左邊滑桿的碰撞偵測;
#X text 822 40 上下邊界的碰撞偵測;
#X obj 513 165 expr if($f1>RY-0.7 && $f1<RY+0.7 \, 1 \, 0);
#X obj 77 -98 r toEnd;
#X msg 77 -74 0;
#X obj 109 -75 r tostart;
#X msg 109 -51 1;
#X obj 77 -49 tgl 15 0 empty empty empty 17 7 0 10 -262144 -1 -1 0
1;
#X obj 22 214 t b b;
#X obj 49 242 v Xpos;
#X obj 48 293 sel 1;
#X obj 48 342 v Rscore;
#X obj 48 367 + 1;
#X obj 49 391 v Rscore;
#X obj 48 317 t b b;
#X obj 106 343 s replay;
#X obj -81 235 v Xpos;
#X obj -82 286 sel 1;
#X obj -82 360 + 1;
#X obj -82 310 t b b;
#X obj -24 336 s replay;
#X obj -82 335 v Lscore;
#X obj -81 384 v Lscore;
#X obj 952 197 * 1.005;
#X obj 239 363 s slider;
#X obj 518 406 s slider;
#X obj 829 392 s edge;
#X obj 787 65 t b b b b;
#X obj 808 93 v Xpos;
#X obj 808 117 expr if($f1>-4&&$f1<4 \, 1 \, 0);
#X obj 775 142 spigot;
#X obj -12 382 s miss;
#X obj -82 263 expr if($f1<-4.5 \, 1 \, 0);
#X obj 48 270 expr if($f1>4.5 \, 1 \, 0);
#X obj 280 87 expr if($f1<-3.2 &&$f1>-3.6 \, 1 \, 0);
#X obj 560 124 expr if($f1>3.2&&$f1<3.6 \, 1 \, 0);
#N canvas 568 453 450 300 limit 0;
#X obj 129 75 inlet;
#X obj 128 116 t b b b;
#X obj 128 95 spigot;
#X obj 199 66 loadbang;
#X msg 144 211 1;
#X msg 191 182 0;
#X obj 182 96 tgl 15 0 empty empty empty 17 7 0 10 -262144 -1 -1 1
1;
#X obj 180 234 outlet;
#X obj 144 156 delay 200;
#X connect 0 0 2 0;
#X connect 1 0 8 0;
#X connect 1 1 7 0;
#X connect 1 2 5 0;
#X connect 2 0 1 0;
#X connect 3 0 6 0;
#X connect 4 0 6 0;
#X connect 5 0 6 0;
#X connect 6 0 2 1;
#X connect 8 0 4 0;
#X restore 200 243 pd limit;
#N canvas 568 453 450 300 limit 0;
#X obj 129 75 inlet;
#X obj 128 116 t b b b;
#X obj 128 95 spigot;
#X obj 199 66 loadbang;
#X msg 144 211 1;
#X msg 191 182 0;
#X obj 182 96 tgl 15 0 empty empty empty 17 7 0 10 -262144 -1 -1 1
1;
#X obj 180 234 outlet;
#X obj 144 156 delay 200;
#X connect 0 0 2 0;
#X connect 1 0 8 0;
#X connect 1 1 7 0;
#X connect 1 2 5 0;
#X connect 2 0 1 0;
#X connect 3 0 6 0;
#X connect 4 0 6 0;
#X connect 5 0 6 0;
#X connect 6 0 2 1;
#X connect 8 0 4 0;
#X restore 479 273 pd limit;
#N canvas 568 453 450 300 limit 0;
#X obj 129 75 inlet;
#X obj 128 116 t b b b;
#X obj 128 95 spigot;
#X obj 199 66 loadbang;
#X msg 144 211 1;
#X msg 191 182 0;
#X obj 182 96 tgl 15 0 empty empty empty 17 7 0 10 -262144 -1 -1 1
1;
#X obj 180 234 outlet;
#X obj 144 156 delay 200;
#X connect 0 0 2 0;
#X connect 1 0 8 0;
#X connect 1 1 7 0;
#X connect 1 2 5 0;
#X connect 2 0 1 0;
#X connect 3 0 6 0;
#X connect 4 0 6 0;
#X connect 5 0 6 0;
#X connect 6 0 2 1;
#X connect 8 0 4 0;
#X restore 829 353 pd limit;
#X obj 829 298 expr if($f1>3.9 || $f1< -3.9 \, 1 \, 0);
#X obj 829 322 sel 1;
#X obj 770 419 * -1;
#X text 42 192 得分計算;
#X obj 67 415 s Rpoint;
#X obj -56 411 s Lpoint;
#X obj 775 270 t f f;
#X obj 498 360 expr (Ypos-RY)/2.0;
#X obj 219 326 expr (Ypos-LY)/2.0;
#X obj 73 141 color 1 1 0;
#X obj 530 -77 value;
#X connect 0 0 19 0;
#X connect 1 0 104 0;
#X connect 3 0 79 0;
#X connect 5 0 4 0;
#X connect 6 0 9 0;
#X connect 7 0 12 0;
#X connect 8 0 10 1;
#X connect 9 0 10 0;
#X connect 9 1 8 0;
#X connect 10 0 11 0;
#X connect 12 0 13 0;
#X connect 12 1 14 0;
#X connect 13 0 101 0;
#X connect 14 0 13 1;
#X connect 15 0 16 0;
#X connect 15 1 17 0;
#X connect 16 0 1 1;
#X connect 17 0 1 2;
#X connect 19 0 1 0;
#X connect 19 1 15 0;
#X connect 19 2 64 0;
#X connect 19 3 38 0;
#X connect 19 4 22 0;
#X connect 19 5 83 0;
#X connect 20 0 97 0;
#X connect 22 0 25 0;
#X connect 22 1 24 0;
#X connect 22 2 23 0;
#X connect 23 0 91 0;
#X connect 24 0 37 0;
#X connect 25 0 93 0;
#X connect 26 0 27 0;
#X connect 27 0 25 1;
#X connect 28 0 30 0;
#X connect 30 0 29 0;
#X connect 31 0 32 0;
#X connect 32 0 33 0;
#X connect 34 0 31 0;
#X connect 34 1 102 0;
#X connect 34 2 28 0;
#X connect 34 2 81 0;
#X connect 35 0 26 1;
#X connect 36 0 26 0;
#X connect 37 0 58 0;
#X connect 38 0 41 0;
#X connect 38 1 40 0;
#X connect 38 2 39 0;
#X connect 39 0 90 0;
#X connect 40 0 53 0;
#X connect 41 0 92 0;
#X connect 42 0 43 0;
#X connect 43 0 41 1;
#X connect 44 0 46 0;
#X connect 46 0 45 0;
#X connect 47 0 48 0;
#X connect 48 0 49 0;
#X connect 50 0 47 0;
#X connect 50 1 103 0;
#X connect 50 2 44 0;
#X connect 50 2 80 0;
#X connect 51 0 42 1;
#X connect 52 0 42 0;
#X connect 53 0 54 0;
#X connect 54 0 52 0;
#X connect 58 0 36 0;
#X connect 59 0 60 0;
#X connect 60 0 63 0;
#X connect 61 0 62 0;
#X connect 62 0 63 0;
#X connect 63 0 0 0;
#X connect 64 0 72 0;
#X connect 64 1 65 0;
#X connect 65 0 89 0;
#X connect 66 0 70 0;
#X connect 67 0 68 0;
#X connect 68 0 69 0;
#X connect 68 0 99 0;
#X connect 70 0 67 0;
#X connect 70 1 71 0;
#X connect 70 1 87 0;
#X connect 72 0 88 0;
#X connect 73 0 75 0;
#X connect 74 0 78 0;
#X connect 74 0 100 0;
#X connect 75 0 77 0;
#X connect 75 1 76 0;
#X connect 75 1 87 0;
#X connect 77 0 74 0;
#X connect 79 0 5 0;
#X connect 83 0 86 0;
#X connect 83 1 84 0;
#X connect 83 2 6 0;
#X connect 83 3 3 0;
#X connect 84 0 85 0;
#X connect 85 0 86 1;
#X connect 86 0 7 0;
#X connect 88 0 73 0;
#X connect 89 0 66 0;
#X connect 90 0 51 0;
#X connect 91 0 35 0;
#X connect 92 0 50 0;
#X connect 93 0 34 0;
#X connect 94 0 20 0;
#X connect 94 0 82 0;
#X connect 95 0 96 0;
#X connect 96 0 94 0;
#X connect 97 0 21 0;
#X connect 101 0 18 0;
#X connect 101 1 95 0;
#X connect 102 0 32 1;
#X connect 103 0 48 1;
#X connect 104 0 2 0;
#X restore -816 200 pd ball&move;
#X connect 1 0 0 0;
#X connect 2 0 1 0;
#X connect 2 1 7 0;
#X connect 3 0 2 0;
#X connect 7 0 0 0;
