#N canvas 446 271 490 298 24;
#N canvas 599 406 523 293 mouse_ctl 0;
#X floatatom 62 121 5 0 0 0 - - -;
#X floatatom 127 194 5 0 0 0 - - -;
#X obj 62 -10 gemmouse 1 1;
#X floatatom 62 25 5 0 0 0 - - -;
#X floatatom 127 118 5 0 0 0 - - -;
#X text 191 195 y=0 1 \, 4 -4;
#X obj 62 60 expr $f1*8-4;
#X obj 127 154 expr $f1*-8+4;
#X text -60 118 x=0 1 \, -4 4;
#X connect 2 0 3 0;
#X connect 2 1 4 0;
#X connect 3 0 6 0;
#X connect 4 0 7 0;
#X connect 6 0 0 0;
#X connect 7 0 1 0;
#X restore -141 210 pd mouse_ctl;
#X msg -165 64 destroy;
#X obj -142 143 gemwin 30;
#N canvas 746 162 740 593 defult 0;
#X obj 212 40 bng 15 250 50 0 empty empty empty 17 7 0 10 -262144 -1
-1;
#X floatatom 223 396 5 0 0 0 - - -;
#X obj 223 436 v xdir;
#X obj -26 406 v ydir;
#X msg 297 176 0;
#X msg 376 174 0;
#X obj 376 210 v xpos;
#X obj 297 210 v ypos;
#X obj 325 -82 gemkeyboard;
#X floatatom 325 -48 5 0 0 0 - - -;
#X obj 325 -19 sel 49;
#X obj 212 67 t b b b b b;
#X obj 325 28 s defult;
#X obj 362 280 random 2;
#X obj 362 319 sel 0 1;
#X msg 359 355 -1;
#X msg 390 388 1;
#X obj 223 358 *;
#X text 569 447 0.1------>;
#X text 497 446 [num];
#X text 338 446 <------- -0.1;
#X obj 223 239 t b b;
#X obj 223 216 bng 15 250 50 0 empty empty empty 17 7 0 10 -262144
-1 -1;
#X obj 113 284 random 2;
#X obj 113 323 sel 0 1;
#X msg 113 360 -1;
#X msg 144 393 1;
#X obj -26 366 *;
#X obj -26 248 t b b;
#X obj -25 226 bng 15 250 50 0 empty empty empty 17 7 0 10 -262144
-1 -1;
#X obj -26 325 + 0.07;
#X obj 223 321 + 0.07;
#X obj 223 281 randomF 0.03;
#X obj -26 285 randomF 0.03;
#X obj 212 -8 r reset;
#X connect 0 0 11 0;
#X connect 1 0 2 0;
#X connect 4 0 7 0;
#X connect 5 0 6 0;
#X connect 8 0 9 0;
#X connect 9 0 10 0;
#X connect 10 0 12 0;
#X connect 10 0 0 0;
#X connect 11 0 29 0;
#X connect 11 1 22 0;
#X connect 11 2 4 0;
#X connect 11 3 5 0;
#X connect 13 0 14 0;
#X connect 14 0 15 0;
#X connect 14 1 16 0;
#X connect 15 0 17 1;
#X connect 16 0 17 1;
#X connect 17 0 1 0;
#X connect 21 0 32 0;
#X connect 21 1 13 0;
#X connect 22 0 21 0;
#X connect 23 0 24 0;
#X connect 24 0 25 0;
#X connect 24 1 26 0;
#X connect 25 0 27 1;
#X connect 26 0 27 1;
#X connect 27 0 3 0;
#X connect 28 0 33 0;
#X connect 28 1 23 0;
#X connect 29 0 28 0;
#X connect 30 0 27 0;
#X connect 31 0 17 0;
#X connect 32 0 31 0;
#X connect 33 0 30 0;
#X connect 34 0 0 0;
#X restore -141 179 pd defult;
#N canvas 476 22 821 625 paddle 0;
#X obj -133 441 rectangle 0.1 1;
#X obj -133 399 color 1 0 0;
#X obj -133 356 translateXYZ -3.5 0 0;
#X obj 158 25 gemkeyboard;
#X floatatom 158 59 5 0 0 0 - - -;
#X obj 158 93 sel 13 1 126 125;
#X obj 158 215 f 0;
#X obj 158 174 t b f;
#X floatatom 208 252 5 0 0 0 - - -;
#X msg 158 129 0.4;
#X msg 214 131 -0.4;
#X obj 208 214 +;
#X obj 293 218 f 0;
#X obj 293 182 t b f;
#X floatatom 343 258 5 0 0 0 - - -;
#X msg 293 137 0.4;
#X msg 349 139 -0.4;
#X obj 343 219 +;
#X text -19 562 y0.5 0.5 x>-3.45;
#N canvas 465 201 835 504 detect 0;
#X obj 145 -65 inlet;
#X obj 294 79 v ypos;
#X obj 110 93 v xpos;
#X floatatom 110 138 5 0 0 0 - - -;
#X floatatom 293 119 5 0 0 0 - - -;
#X obj 147 -23 t b b;
#X text -98 70 $f2 ball_pos-y;
#X text -97 47 $f1 ball_pos-x;
#X text -99 93 $f3 paddle_lenght-y;
#X obj 411 -33 inlet;
#X obj 42 247 tgl 15 0 empty empty empty 17 7 0 10 -262144 -1 -1 0
1;
#X obj 33 322 sel 1;
#X obj 33 356 v xdir;
#X obj 31 475 v xdir;
#X obj 33 273 change;
#X obj 31 435 * -1;
#X obj 38 193 expr if($f2<$f3+0.5 && $f2>$f3-0.5 && $f1< -3.4 \, 1
\, 0);
#X obj 159 467 dac~;
#X obj 159 415 *~ 0;
#X msg 191 255 0.5 \, 0 300;
#X obj 191 298 line;
#X obj 159 370 osc~ 880;
#X connect 0 0 5 0;
#X connect 1 0 4 0;
#X connect 2 0 3 0;
#X connect 3 0 16 0;
#X connect 4 0 16 1;
#X connect 5 0 2 0;
#X connect 5 1 1 0;
#X connect 9 0 16 2;
#X connect 10 0 14 0;
#X connect 11 0 12 0;
#X connect 11 0 19 0;
#X connect 12 0 15 0;
#X connect 14 0 11 0;
#X connect 15 0 13 0;
#X connect 16 0 10 0;
#X connect 18 0 17 0;
#X connect 18 0 17 1;
#X connect 19 0 20 0;
#X connect 20 0 18 1;
#X connect 21 0 18 0;
#X restore -74 292 pd detect;
#X obj -124 256 t a b;
#X obj -125 227 gemhead 20;
#X obj 258 532 rectangle 0.1 1;
#X obj 258 490 color 1 0 0;
#N canvas 292 44 837 692 detect 0;
#X obj 145 -65 inlet;
#X obj 294 79 v ypos;
#X obj 110 93 v xpos;
#X floatatom 110 138 5 0 0 0 - - -;
#X floatatom 293 119 5 0 0 0 - - -;
#X obj 147 -23 t b b;
#X text -98 70 $f2 ball_pos-y;
#X text -97 47 $f1 ball_pos-x;
#X text -99 93 $f3 paddle_lenght-y;
#X obj 411 -33 inlet;
#X obj 42 247 tgl 15 0 empty empty empty 17 7 0 10 -262144 -1 -1 0
1;
#X obj 33 322 sel 1;
#X obj 33 356 v xdir;
#X obj 31 475 v xdir;
#X obj 33 273 change;
#X obj 31 435 * -1;
#X obj 38 193 expr if($f2<$f3+0.5 && $f2>$f3-0.5 && $f1> 3.4 \, 1 \,
0);
#X obj 169 477 dac~;
#X obj 169 425 *~ 0;
#X msg 201 265 0.5 \, 0 300;
#X obj 201 308 line;
#X obj 169 380 osc~ 880;
#X connect 0 0 5 0;
#X connect 1 0 4 0;
#X connect 2 0 3 0;
#X connect 3 0 16 0;
#X connect 4 0 16 1;
#X connect 5 0 2 0;
#X connect 5 1 1 0;
#X connect 9 0 16 2;
#X connect 10 0 14 0;
#X connect 11 0 12 0;
#X connect 11 0 19 0;
#X connect 12 0 15 0;
#X connect 14 0 11 0;
#X connect 15 0 13 0;
#X connect 16 0 10 0;
#X connect 18 0 17 0;
#X connect 18 0 17 1;
#X connect 19 0 20 0;
#X connect 20 0 18 1;
#X connect 21 0 18 0;
#X restore 317 383 pd detect;
#X obj 267 347 t a b;
#X obj 266 318 gemhead 20;
#X obj 258 447 translateXYZ 3.5 0 0;
#X connect 1 0 0 0;
#X connect 2 0 1 0;
#X connect 3 0 4 0;
#X connect 4 0 5 0;
#X connect 5 0 9 0;
#X connect 5 1 10 0;
#X connect 5 2 15 0;
#X connect 5 3 16 0;
#X connect 6 0 11 0;
#X connect 7 0 6 0;
#X connect 7 1 11 1;
#X connect 8 0 2 2;
#X connect 8 0 6 1;
#X connect 8 0 19 1;
#X connect 9 0 7 0;
#X connect 10 0 7 0;
#X connect 11 0 8 0;
#X connect 12 0 17 0;
#X connect 13 0 12 0;
#X connect 13 1 17 1;
#X connect 14 0 12 1;
#X connect 14 0 24 1;
#X connect 14 0 27 2;
#X connect 15 0 13 0;
#X connect 16 0 13 0;
#X connect 17 0 14 0;
#X connect 20 0 2 0;
#X connect 20 1 19 0;
#X connect 21 0 20 0;
#X connect 23 0 22 0;
#X connect 25 0 27 0;
#X connect 25 1 24 0;
#X connect 26 0 25 0;
#X connect 27 0 23 0;
#X restore 3 174 pd paddle;
#X msg -145 100 reset \, color 0.1 0.3 0.7 \, create \, 1;
#N canvas 378 209 496 574 ball 0;
#X obj 54 479 circle 0.2;
#X obj 54 385 translateXYZ 0 0 0;
#N canvas 585 216 440 436 walk 0;
#X obj 42 88 v xpos;
#X obj 42 135 +;
#X obj 118 86 v xdir;
#X obj -114 139 +;
#X obj -115 93 v ypos;
#X obj -39 91 v ydir;
#X obj -115 263 v ypos;
#X obj 42 258 v xpos;
#X obj -23 15 t b b b b;
#X obj -24 -23 inlet;
#X connect 0 0 1 0;
#X connect 1 0 7 0;
#X connect 2 0 1 1;
#X connect 3 0 6 0;
#X connect 4 0 3 0;
#X connect 5 0 3 1;
#X connect 8 0 4 0;
#X connect 8 1 5 0;
#X connect 8 2 0 0;
#X connect 8 3 2 0;
#X connect 9 0 8 0;
#X restore 172 224 pd walk;
#N canvas 487 494 370 237 find_pos 0;
#X obj 67 117 v xpos;
#X obj 146 115 v ypos;
#X obj 67 63 t b b;
#X obj 67 24 inlet;
#X obj 67 152 outlet;
#X obj 146 152 outlet;
#X connect 0 0 4 0;
#X connect 1 0 5 0;
#X connect 2 0 0 0;
#X connect 2 1 1 0;
#X connect 3 0 2 0;
#X restore 80 339 pd find_pos;
#X obj 53 146 gemhead 10;
#X obj 54 430 color 1 1 0;
#X obj 53 188 t a b b b b;
#N canvas 481 22 673 748 detect-edge-y 0;
#X obj 61 220 v ypos;
#X obj -25 56 inlet;
#X obj 61 357 sel 1;
#X obj 61 400 v ydir;
#X obj 61 513 v ydir;
#X floatatom 61 440 5 0 0 0 - - -;
#X obj 61 309 change;
#X obj 61 262 expr if($f1>3.8 ||$f1<-3.8 \, 1 \, 0);
#X obj 61 476 * -1;
#X obj 165 463 osc~ 440;
#X obj 165 560 dac~;
#X obj 165 508 *~ 0;
#X msg 197 348 0.5 \, 0 300;
#X obj 197 391 line;
#X connect 0 0 7 0;
#X connect 1 0 0 0;
#X connect 2 0 3 0;
#X connect 2 0 12 0;
#X connect 3 0 5 0;
#X connect 5 0 8 0;
#X connect 6 0 2 0;
#X connect 7 0 6 0;
#X connect 8 0 4 0;
#X connect 9 0 11 0;
#X connect 11 0 10 0;
#X connect 11 0 10 1;
#X connect 12 0 13 0;
#X connect 13 0 11 1;
#X restore 138 265 pd detect-edge-y;
#N canvas 233 22 842 701 show-score 0;
#X obj 108 -79 inlet;
#X obj -232 77 sel 1;
#X obj -232 -53 v xpos;
#X obj 107 -40 t b b b b;
#X obj -56 29 v xpos;
#X obj -232 39 change;
#X obj -56 106 change;
#X obj -57 144 sel 1;
#X floatatom -246 322 5 0 0 0 - - -;
#X obj -246 276 - 1;
#X msg -217 195 5;
#X obj -246 238 f 5;
#X obj -336 296 gemhead;
#X obj -314 462 text2d;
#X floatatom 68 327 5 0 0 0 - - -;
#X obj 68 281 - 1;
#X obj 68 243 f 5;
#X obj -22 301 gemhead;
#X obj 0 467 text2d;
#X obj -217 157 r defult;
#X msg 41 170 5;
#X obj 41 132 r defult;
#X obj -314 369 translateXYZ 3 3 0;
#X obj 0 374 translateXYZ -3 3 0;
#X msg -258 404 text life=\$1;
#X msg 56 409 text life=\$1;
#X obj -232 -11 expr if($f1> 4.2 \, 1 \, 0);
#X obj -56 71 expr if($f1<-4.2 \, 1 \, 0);
#X obj -155 231 s reset;
#X connect 0 0 3 0;
#X connect 1 0 11 0;
#X connect 1 0 28 0;
#X connect 2 0 26 0;
#X connect 3 0 2 0;
#X connect 3 1 4 0;
#X connect 4 0 27 0;
#X connect 5 0 1 0;
#X connect 6 0 7 0;
#X connect 7 0 16 0;
#X connect 7 0 28 0;
#X connect 8 0 11 1;
#X connect 8 0 24 0;
#X connect 9 0 8 0;
#X connect 10 0 11 0;
#X connect 11 0 9 0;
#X connect 12 0 22 0;
#X connect 14 0 16 1;
#X connect 14 0 25 0;
#X connect 15 0 14 0;
#X connect 16 0 15 0;
#X connect 17 0 23 0;
#X connect 19 0 10 0;
#X connect 20 0 16 0;
#X connect 21 0 20 0;
#X connect 22 0 13 0;
#X connect 23 0 18 0;
#X connect 24 0 13 0;
#X connect 25 0 18 0;
#X connect 26 0 5 0;
#X connect 27 0 6 0;
#X restore 109 296 pd show-score;
#X connect 1 0 5 0;
#X connect 3 0 1 1;
#X connect 3 1 1 2;
#X connect 4 0 6 0;
#X connect 5 0 0 0;
#X connect 6 0 1 0;
#X connect 6 1 3 0;
#X connect 6 2 8 0;
#X connect 6 3 7 0;
#X connect 6 4 2 0;
#X restore 5 211 pd ball;
#X obj -165 25 sel 0 1;
#X obj -164 -12 tgl 30 0 empty empty empty 17 7 0 10 -262144 -1 -1
0 1;
#X text 2 241 碰撞球的程式碼在這裡;
#X connect 1 0 2 0;
#X connect 5 0 2 0;
#X connect 7 0 1 0;
#X connect 7 1 5 0;
#X connect 8 0 7 0;
